# 3ds Max Wavefront OBJ Exporter v0.97b - (c)2007 guruware
# File Created: 30.11.2015 19:19:04

mtllib 3d-model.mtl

#
# object Layer0_001
#

v  -37.7106 5.9154 1.1398
v  -37.7106 5.9154 -1.1398
v  37.7106 5.9154 -1.1398
v  37.7106 5.9154 1.1398
v  37.7106 154.9134 1.1398
v  37.7106 154.9134 -1.1398
v  -37.7106 154.9134 1.1398
v  31.8014 157.6954 1.1398
v  -37.6452 154.9442 1.1398
v  -31.8014 157.6954 1.1398
v  25.6887 159.9962 1.1398
v  -25.6887 159.9962 1.1398
v  19.4117 161.8011 1.1398
v  -19.4117 161.8011 1.1398
v  13.0105 163.0987 1.1398
v  -13.0105 163.0987 1.1398
v  6.5261 163.8806 1.1398
v  -6.5261 163.8806 1.1398
v  0.0000 164.1418 1.1398
v  -24.3975 20.5463 -1.1398
v  -12.8648 19.2347 -1.1398
v  -26.3590 19.2347 -1.1398
v  -26.3590 118.1717 -1.1398
v  -24.3975 116.4558 -1.1398
v  -14.4762 116.4558 -1.1398
v  -12.8648 118.1717 -1.1398
v  -14.4762 20.5463 -1.1398
v  14.4255 20.5463 -1.1398
v  25.5583 19.2347 -1.1398
v  12.4905 19.2347 -1.1398
v  12.4905 118.1717 -1.1398
v  14.4255 116.4203 -1.1398
v  24.0277 116.4203 -1.1398
v  25.5583 118.1717 -1.1398
v  24.0277 20.5463 -1.1398
v  -4.7566 20.5463 -1.1398
v  6.1734 19.2347 -1.1398
v  -6.6583 19.2347 -1.1398
v  -6.6583 118.1717 -1.1398
v  -4.7566 116.4203 -1.1398
v  5.1437 116.4203 -1.1398
v  6.1734 118.1717 -1.1398
v  5.1437 20.5463 -1.1398
v  24.0277 20.5463 0.3327
v  14.4255 20.5463 0.3327
v  14.4255 116.4203 0.3327
v  24.0277 116.4203 0.3327
v  5.1437 20.5463 0.3327
v  -4.7566 20.5463 0.3327
v  -4.7566 116.4203 0.3327
v  5.1437 116.4203 0.3327
v  -14.4762 20.5463 0.3327
v  -24.3975 20.5463 0.3327
v  -24.3975 116.4558 0.3327
v  -14.4762 116.4558 0.3327
v  32.8013 6.5191 -1.1398
v  -33.2893 6.5191 -1.1398
v  -33.4546 151.8695 -1.1398
v  32.8013 151.8695 -1.1398
v  -28.2300 154.1870 -1.1398
v  27.5766 154.1870 -1.1398
v  22.1913 156.1016 -1.1398
v  -22.8446 156.1016 -1.1398
v  -17.3296 157.6023 -1.1398
v  16.6763 157.6023 -1.1398
v  -11.7167 158.6804 -1.1398
v  11.0633 158.6804 -1.1398
v  -6.0381 159.3298 -1.1398
v  5.3848 159.3298 -1.1398
v  -0.3267 159.5467 -1.1398
v  -37.7106 154.9134 -1.1398
v  -37.6452 154.9442 -1.1398
v  -31.8014 157.6954 -1.1398
v  -25.6887 159.9962 -1.1398
v  25.6887 159.9962 -1.1398
v  31.8014 157.6954 -1.1398
v  -19.4117 161.8011 -1.1398
v  19.4117 161.8011 -1.1398
v  -13.0105 163.0987 -1.1398
v  13.0105 163.0987 -1.1398
v  -6.5261 163.8806 -1.1398
v  6.5261 163.8806 -1.1398
v  0.0000 164.1418 -1.1398
v  43.6260 0.0000 -1.1398
v  -43.6260 0.0000 -1.1398
v  -43.6260 158.6667 -1.1398
v  -40.1647 160.2962 -1.1398
v  -34.1067 163.1482 -1.1398
v  -27.5509 165.6158 -1.1398
v  27.5509 165.6158 -1.1398
v  20.8189 167.5516 -1.1398
v  -20.8189 167.5516 -1.1398
v  -13.9537 168.9432 -1.1398
v  13.9537 168.9432 -1.1398
v  -6.9992 169.7818 -1.1398
v  6.9992 169.7818 -1.1398
v  0.0000 170.0619 -1.1398
v  34.1067 163.1482 -1.1398
v  43.6260 158.6667 -1.1398
v  -43.6260 0.0000 1.1398
v  43.6260 0.0000 1.1398
v  43.6260 158.6667 1.1398
v  34.1067 163.1482 1.1398
v  27.5509 165.6158 1.1398
v  -27.5509 165.6158 1.1398
v  -34.1067 163.1482 1.1398
v  -40.1647 160.2962 1.1398
v  -43.6260 158.6667 1.1398
v  20.8189 167.5516 1.1398
v  -20.8189 167.5516 1.1398
v  13.9537 168.9432 1.1398
v  -13.9537 168.9432 1.1398
v  -6.9992 169.7818 1.1398
v  6.9992 169.7818 1.1398
v  0.0000 170.0619 1.1398
# 115 vertices

vn 0.0000 -1.0000 -0.0000
vn 1.0000 0.0000 -0.0000
vn 0.0000 0.0000 1.0000
vn 0.0000 0.0000 -1.0000
vn 0.0000 1.0000 -0.0000
vn -1.0000 0.0000 -0.0000
vn -0.3894 0.9211 0.0000
vn -0.4259 0.9048 0.0000
vn 0.3894 0.9211 -0.0000
vn 0.4259 0.9048 -0.0000
vn 0.3146 0.9492 -0.0000
vn 0.2377 0.9713 -0.0000
vn 0.1593 0.9872 -0.0000
vn 0.0799 0.9968 -0.0000
vn -0.0799 0.9968 -0.0000
vn -0.1593 0.9872 -0.0000
vn -0.2377 0.9713 -0.0000
vn -0.3146 0.9492 0.0000
# 18 vertex normals

vt -0.0169 -0.0436 0.0000
vt -0.0169 -0.0056 0.0000
vt -1.2739 -0.0056 0.0000
vt -1.2739 -0.0436 0.0000
vt -0.0436 2.5837 0.0000
vt -0.0436 0.1004 0.0000
vt -0.0056 0.1004 0.0000
vt -0.0056 2.5837 0.0000
vt 0.0169 0.1004 0.0000
vt 1.2739 0.1004 0.0000
vt 1.2739 2.5837 0.0000
vt 0.0169 2.5837 0.0000
vt 1.1754 2.6301 0.0000
vt 0.0180 2.5842 0.0000
vt 0.1154 2.6301 0.0000
vt 1.0735 2.6684 0.0000
vt 0.2173 2.6684 0.0000
vt 0.9689 2.6985 0.0000
vt 0.3219 2.6985 0.0000
vt 0.8622 2.7201 0.0000
vt 0.4286 2.7201 0.0000
vt 0.7542 2.7331 0.0000
vt 0.5366 2.7331 0.0000
vt 0.6454 2.7375 0.0000
vt -0.2388 0.3442 0.0000
vt -0.4310 0.3224 0.0000
vt -0.2061 0.3224 0.0000
vt -0.2061 1.9713 0.0000
vt -0.2388 1.9427 0.0000
vt -0.4041 1.9427 0.0000
vt -0.4310 1.9713 0.0000
vt -0.4041 0.3442 0.0000
vt -0.8858 0.3442 0.0000
vt -1.0714 0.3224 0.0000
vt -0.8536 0.3224 0.0000
vt -0.8536 1.9713 0.0000
vt -0.8858 1.9421 0.0000
vt -1.0459 1.9421 0.0000
vt -1.0714 1.9713 0.0000
vt -1.0459 0.3442 0.0000
vt -0.5661 0.3442 0.0000
vt -0.7483 0.3224 0.0000
vt -0.5344 0.3224 0.0000
vt -0.5344 1.9713 0.0000
vt -0.5661 1.9421 0.0000
vt -0.7311 1.9421 0.0000
vt -0.7483 1.9713 0.0000
vt -0.7311 0.3442 0.0000
vt 0.8858 -0.0056 0.0000
vt 0.8858 -0.0302 0.0000
vt 1.0459 -0.0302 0.0000
vt 1.0459 -0.0056 0.0000
vt -0.0302 1.9421 0.0000
vt -0.0302 0.3442 0.0000
vt -0.0056 0.3442 0.0000
vt -0.0056 1.9421 0.0000
vt -0.8858 -0.0302 0.0000
vt -0.8858 -0.0056 0.0000
vt -1.0459 -0.0056 0.0000
vt -1.0459 -0.0302 0.0000
vt 0.0302 0.3442 0.0000
vt 0.0302 1.9421 0.0000
vt 0.0056 1.9421 0.0000
vt 0.0056 0.3442 0.0000
vt 0.5661 -0.0056 0.0000
vt 0.5661 -0.0302 0.0000
vt 0.7311 -0.0302 0.0000
vt 0.7311 -0.0056 0.0000
vt -0.5661 -0.0302 0.0000
vt -0.5661 -0.0056 0.0000
vt -0.7311 -0.0056 0.0000
vt -0.7311 -0.0302 0.0000
vt -0.2388 -0.0302 0.0000
vt -0.2388 -0.0056 0.0000
vt -0.4041 -0.0056 0.0000
vt -0.4041 -0.0302 0.0000
vt 0.2388 -0.0056 0.0000
vt 0.2388 -0.0302 0.0000
vt 0.4041 -0.0302 0.0000
vt 0.4041 -0.0056 0.0000
vt -1.1921 0.1105 0.0000
vt -0.0906 0.1105 0.0000
vt -0.0878 2.5330 0.0000
vt -1.1921 2.5330 0.0000
vt -0.1749 2.5716 0.0000
vt -1.1050 2.5716 0.0000
vt -1.0153 2.6035 0.0000
vt -0.2647 2.6035 0.0000
vt -0.3566 2.6285 0.0000
vt -0.9233 2.6285 0.0000
vt -0.4501 2.6465 0.0000
vt -0.8298 2.6465 0.0000
vt -0.5448 2.6573 0.0000
vt -0.7351 2.6573 0.0000
vt -0.6400 2.6609 0.0000
vt 0.0056 0.1004 0.0000
vt 0.0436 0.1004 0.0000
vt 0.0436 2.5837 0.0000
vt 0.0056 2.5837 0.0000
vt -1.2739 0.1004 0.0000
vt -0.0169 0.1004 0.0000
vt -0.0169 2.5837 0.0000
vt -0.0180 2.5842 0.0000
vt -0.1154 2.6301 0.0000
vt -0.2173 2.6684 0.0000
vt -1.0735 2.6684 0.0000
vt -1.1754 2.6301 0.0000
vt -1.2739 2.5837 0.0000
vt -0.3219 2.6985 0.0000
vt -0.9689 2.6985 0.0000
vt -0.4286 2.7201 0.0000
vt -0.8622 2.7201 0.0000
vt -0.5366 2.7331 0.0000
vt -0.7542 2.7331 0.0000
vt -0.6454 2.7375 0.0000
vt 0.0056 1.2246 0.0000
vt 0.0056 1.1170 0.0000
vt 0.0436 1.1170 0.0000
vt 0.0436 1.2246 0.0000
vt 0.0056 1.1158 0.0000
vt 0.0436 1.1158 0.0000
vt -0.0056 0.0568 0.0000
vt -0.0436 0.0568 0.0000
vt -0.0436 -0.0521 0.0000
vt -0.0056 -0.0521 0.0000
vt -0.0056 -0.0647 0.0000
vt -0.0436 -0.0647 0.0000
vt -0.0436 -0.1736 0.0000
vt -0.0056 -0.1736 0.0000
vt -0.0056 -0.1855 0.0000
vt -0.0436 -0.1855 0.0000
vt -0.0436 -0.2943 0.0000
vt -0.0056 -0.2943 0.0000
vt -0.0056 -0.3047 0.0000
vt -0.0436 -0.3047 0.0000
vt -0.0436 -0.4135 0.0000
vt -0.0056 -0.4135 0.0000
vt -0.0056 -0.4216 0.0000
vt -0.0436 -0.4216 0.0000
vt -0.0436 -0.5304 0.0000
vt -0.0056 -0.5304 0.0000
vt -0.0056 -0.5354 0.0000
vt -0.0436 -0.5354 0.0000
vt -0.0436 -0.6443 0.0000
vt -0.0056 -0.6443 0.0000
vt 0.0056 0.6455 0.0000
vt 0.0436 0.6455 0.0000
vt 0.0436 0.7544 0.0000
vt 0.0056 0.7544 0.0000
vt 0.0056 0.7511 0.0000
vt 0.0436 0.7511 0.0000
vt 0.0436 0.8600 0.0000
vt 0.0056 0.8600 0.0000
vt 0.0056 0.8516 0.0000
vt 0.0436 0.8516 0.0000
vt 0.0436 0.9604 0.0000
vt 0.0056 0.9604 0.0000
vt 0.0056 0.9462 0.0000
vt 0.0436 0.9462 0.0000
vt 0.0436 1.0551 0.0000
vt 0.0056 1.0551 0.0000
vt 0.0056 1.1433 0.0000
vt 0.0056 1.0345 0.0000
vt 0.0436 1.0345 0.0000
vt 0.0436 1.1433 0.0000
vt -1.3725 0.0018 0.0000
vt 0.0817 0.0018 0.0000
vt 0.0817 2.6462 0.0000
vt 0.0240 2.6734 0.0000
vt -0.0770 2.7209 0.0000
vt -0.1862 2.7621 0.0000
vt -1.1046 2.7621 0.0000
vt -0.9924 2.7943 0.0000
vt -0.2984 2.7943 0.0000
vt -0.4128 2.8175 0.0000
vt -0.8780 2.8175 0.0000
vt -0.5287 2.8315 0.0000
vt -0.7621 2.8315 0.0000
vt -0.6454 2.8362 0.0000
vt -1.2138 2.7209 0.0000
vt -1.3725 2.6462 0.0000
vt -0.0817 0.0018 0.0000
vt 1.3725 0.0018 0.0000
vt 1.3725 2.6462 0.0000
vt 1.2138 2.7209 0.0000
vt 1.1046 2.7621 0.0000
vt 0.1862 2.7621 0.0000
vt 0.0770 2.7209 0.0000
vt -0.0240 2.6734 0.0000
vt -0.0817 2.6462 0.0000
vt 0.9924 2.7943 0.0000
vt 0.2984 2.7943 0.0000
vt 0.8780 2.8175 0.0000
vt 0.4128 2.8175 0.0000
vt 0.5287 2.8315 0.0000
vt 0.7621 2.8315 0.0000
vt 0.6454 2.8362 0.0000
vt 0.0056 0.0018 0.0000
vt 0.0436 0.0018 0.0000
vt 0.0436 2.6462 0.0000
vt 0.0056 2.6462 0.0000
vt 0.0056 1.0532 0.0000
vt 0.0436 1.0532 0.0000
vt 0.0436 1.2286 0.0000
vt 0.0056 1.2286 0.0000
vt 0.0056 1.0305 0.0000
vt 0.0436 1.0305 0.0000
vt 0.0436 1.1473 0.0000
vt 0.0056 1.1473 0.0000
vt 0.0056 0.9423 0.0000
vt 0.0436 0.9423 0.0000
vt 0.0436 1.0590 0.0000
vt 0.0056 1.0590 0.0000
vt 0.0056 0.8476 0.0000
vt 0.0436 0.8476 0.0000
vt 0.0436 0.9644 0.0000
vt 0.0056 0.9644 0.0000
vt 0.0056 0.7472 0.0000
vt 0.0436 0.7472 0.0000
vt 0.0436 0.8639 0.0000
vt 0.0056 0.8639 0.0000
vt 0.0056 0.6416 0.0000
vt 0.0436 0.6416 0.0000
vt 0.0436 0.7583 0.0000
vt 0.0056 0.7583 0.0000
vt -0.0056 -0.5315 0.0000
vt -0.0436 -0.5315 0.0000
vt -0.0436 -0.6482 0.0000
vt -0.0056 -0.6482 0.0000
vt -0.0056 -0.4176 0.0000
vt -0.0436 -0.4176 0.0000
vt -0.0436 -0.5344 0.0000
vt -0.0056 -0.5344 0.0000
vt -0.0056 -0.3007 0.0000
vt -0.0436 -0.3007 0.0000
vt -0.0056 -0.1815 0.0000
vt -0.0436 -0.1815 0.0000
vt -0.0436 -0.2983 0.0000
vt -0.0056 -0.2983 0.0000
vt -0.0056 -0.0608 0.0000
vt -0.0436 -0.0608 0.0000
vt -0.0436 -0.1775 0.0000
vt -0.0056 -0.1775 0.0000
vt -0.0056 0.0607 0.0000
vt -0.0436 0.0607 0.0000
vt -0.0436 -0.1146 0.0000
vt -0.0056 -0.1146 0.0000
vt -0.0436 2.6462 0.0000
vt -0.0436 0.0018 0.0000
vt -0.0056 0.0018 0.0000
vt -0.0056 2.6462 0.0000
vt -1.3725 -0.0436 0.0000
vt 0.0817 -0.0436 0.0000
vt 0.0817 -0.0056 0.0000
vt -1.3725 -0.0056 0.0000
# 255 texture coords

g Layer0_001
usemtl Wood__Floor
s off
f 1/1/1 2/2/1 3/3/1 4/4/1 
f 5/5/2 4/6/2 3/7/2 6/8/2 
f 1/9/3 4/10/3 5/11/3 7/12/3 
f 7/12/3 5/11/3 8/13/3 9/14/3 
f 10/15/3 9/14/3 8/13/3 11/16/3 
f 12/17/3 10/15/3 11/16/3 13/18/3 
f 14/19/3 12/17/3 13/18/3 15/20/3 
f 16/21/3 14/19/3 15/20/3 17/22/3 
f 18/23/3 16/21/3 17/22/3 19/24/3 
f 20/25/4 21/26/4 22/27/4 23/28/4 
f 24/29/4 20/25/4 23/28/4 25/30/4 
f 25/30/4 23/28/4 26/31/4 27/32/4 
f 27/32/4 26/31/4 21/26/4 20/25/4 
f 28/33/4 29/34/4 30/35/4 31/36/4 
f 32/37/4 28/33/4 31/36/4 33/38/4 
f 33/38/4 31/36/4 34/39/4 35/40/4 
f 35/40/4 34/39/4 29/34/4 28/33/4 
f 36/41/4 37/42/4 38/43/4 39/44/4 
f 40/45/4 36/41/4 39/44/4 41/46/4 
f 41/46/4 39/44/4 42/47/4 43/48/4 
f 43/48/4 42/47/4 37/42/4 36/41/4 
f 44/40/4 45/33/4 46/37/4 47/38/4 
f 28/49/5 45/50/5 44/51/5 35/52/5 
f 46/53/2 45/54/2 28/55/2 32/56/2 
f 46/57/1 32/58/1 33/59/1 47/60/1 
f 44/61/6 47/62/6 33/63/6 35/64/6 
f 48/48/4 49/41/4 50/45/4 51/46/4 
f 36/65/5 49/66/5 48/67/5 43/68/5 
f 50/53/2 49/54/2 36/55/2 40/56/2 
f 50/69/1 40/70/1 41/71/1 51/72/1 
f 48/61/6 51/62/6 41/63/6 43/64/6 
f 52/32/4 53/25/4 54/29/4 55/30/4 
f 54/73/1 24/74/1 25/75/1 55/76/1 
f 52/61/6 55/62/6 25/63/6 27/64/6 
f 20/77/5 53/78/5 52/79/5 27/80/5 
f 54/53/2 53/54/2 20/55/2 24/56/2 
f 22/27/4 56/81/4 57/82/4 58/83/4 
f 23/28/4 22/27/4 58/83/4 26/31/4 
f 39/44/4 26/31/4 58/83/4 42/47/4 
f 31/36/4 42/47/4 58/83/4 34/39/4 
f 34/39/4 58/83/4 59/84/4 29/34/4 
f 29/34/4 59/84/4 56/81/4 22/27/4 
f 29/34/4 22/27/4 21/26/4 38/43/4 
f 38/43/4 21/26/4 26/31/4 39/44/4 
f 29/34/4 38/43/4 37/42/4 30/35/4 
f 30/35/4 37/42/4 42/47/4 31/36/4 
f 59/84/4 58/83/4 60/85/4 61/86/4 
f 62/87/4 61/86/4 60/85/4 63/88/4 
f 62/87/4 63/88/4 64/89/4 65/90/4 
f 65/90/4 64/89/4 66/91/4 67/92/4 
f 67/92/4 66/91/4 68/93/4 69/94/4 
f 69/94/4 68/93/4 70/95/4 
f 2/96/6 1/97/6 7/98/6 71/99/6 
f 57/82/4 3/100/4 2/101/4 71/102/4 
f 58/83/4 57/82/4 71/102/4 60/85/4 
f 63/88/4 60/85/4 71/102/4 72/103/4 
f 63/88/4 72/103/4 73/104/4 64/89/4 
f 66/91/4 64/89/4 73/104/4 74/105/4 
f 68/93/4 66/91/4 74/105/4 70/95/4 
f 70/95/4 74/105/4 75/106/4 69/94/4 
f 67/92/4 69/94/4 75/106/4 76/107/4 
f 65/90/4 67/92/4 76/107/4 62/87/4 
f 62/87/4 76/107/4 6/108/4 61/86/4 
f 59/84/4 61/86/4 6/108/4 56/81/4 
f 56/81/4 6/108/4 3/100/4 57/82/4 
f 75/106/4 74/105/4 77/109/4 78/110/4 
f 78/110/4 77/109/4 79/111/4 80/112/4 
f 80/112/4 79/111/4 81/113/4 82/114/4 
f 82/114/4 81/113/4 83/115/4 
f 73/116/7 72/117/8 9/118/8 10/119/7 
f 72/117/8 71/120/8 7/121/8 9/118/8 
f 76/122/9 8/123/9 5/124/10 6/125/10 
f 75/126/11 11/127/11 8/128/9 76/129/9 
f 78/130/12 13/131/12 11/132/11 75/133/11 
f 80/134/13 15/135/13 13/136/12 78/137/12 
f 82/138/14 17/139/14 15/140/13 80/141/13 
f 83/142/5 19/143/5 17/144/14 82/145/14 
f 81/146/15 18/147/15 19/148/5 83/149/5 
f 79/150/16 16/151/16 18/152/15 81/153/15 
f 77/154/17 14/155/17 16/156/16 79/157/16 
f 74/158/18 12/159/18 14/160/17 77/161/17 
f 74/162/18 73/163/7 10/164/7 12/165/18 
f 2/101/4 84/166/4 85/167/4 86/168/4 
f 71/102/4 2/101/4 86/168/4 72/103/4 
f 73/104/4 72/103/4 86/168/4 74/105/4 
f 74/105/4 86/168/4 87/169/4 77/109/4 
f 77/109/4 87/169/4 88/170/4 79/111/4 
f 81/113/4 79/111/4 88/170/4 89/171/4 
f 83/115/4 81/113/4 89/171/4 90/172/4 
f 91/173/4 90/172/4 89/171/4 92/174/4 
f 91/173/4 92/174/4 93/175/4 94/176/4 
f 94/176/4 93/175/4 95/177/4 96/178/4 
f 96/178/4 95/177/4 97/179/4 
f 82/114/4 83/115/4 90/172/4 98/180/4 
f 80/112/4 82/114/4 98/180/4 78/110/4 
f 75/106/4 78/110/4 98/180/4 99/181/4 
f 76/107/4 75/106/4 99/181/4 6/108/4 
f 3/100/4 6/108/4 99/181/4 84/166/4 
f 3/100/4 84/166/4 2/101/4 
f 4/10/3 100/182/3 101/183/3 102/184/3 
f 5/11/3 4/10/3 102/184/3 8/13/3 
f 11/16/3 8/13/3 102/184/3 103/185/3 
f 13/18/3 11/16/3 103/185/3 15/20/3 
f 17/22/3 15/20/3 103/185/3 104/186/3 
f 19/24/3 17/22/3 104/186/3 105/187/3 
f 18/23/3 19/24/3 105/187/3 106/188/3 
f 16/21/3 18/23/3 106/188/3 14/19/3 
f 14/19/3 106/188/3 107/189/3 12/17/3 
f 12/17/3 107/189/3 108/190/3 10/15/3 
f 9/14/3 10/15/3 108/190/3 7/12/3 
f 1/9/3 7/12/3 108/190/3 100/182/3 
f 1/9/3 100/182/3 4/10/3 
f 105/187/3 104/186/3 109/191/3 110/192/3 
f 110/192/3 109/191/3 111/193/3 112/194/3 
f 113/195/3 112/194/3 111/193/3 114/196/3 
f 113/195/3 114/196/3 115/197/3 
f 85/198/6 100/199/6 108/200/6 86/201/6 
f 86/202/8 108/203/8 107/118/8 87/117/8 
f 87/117/8 107/118/8 106/204/7 88/205/7 
f 88/206/7 106/207/7 105/208/18 89/209/18 
f 89/210/18 105/211/18 110/212/17 92/213/17 
f 92/214/17 110/215/17 112/216/16 93/217/16 
f 93/218/16 112/219/16 113/220/15 95/221/15 
f 95/222/15 113/223/15 115/224/5 97/225/5 
f 97/226/5 115/227/5 114/228/14 96/229/14 
f 96/230/14 114/231/14 111/232/13 94/233/13 
f 94/234/13 111/235/13 109/231/12 91/230/12 
f 91/236/12 109/237/12 104/238/11 90/239/11 
f 90/240/11 104/241/11 103/242/9 98/243/9 
f 98/244/9 103/245/9 102/246/10 99/247/10 
f 102/248/2 101/249/2 84/250/2 99/251/2 
f 101/252/1 100/253/1 85/254/1 84/255/1 
# 126 polygons - 6 triangles

